<?xml version="1.0" standalone="no"?>
<!DOCTYPE svg PUBLIC "-//W3C//DTD SVG 20010904//EN"
 "http://www.w3.org/TR/2001/REC-SVG-20010904/DTD/svg10.dtd">
<svg version="1.0" xmlns="http://www.w3.org/2000/svg"
 width="1578.000000pt" height="1134.000000pt" viewBox="0 0 1578.000000 1134.000000"
 preserveAspectRatio="xMidYMid meet">

<g transform="translate(0.000000,1134.000000) scale(0.100000,-0.100000)"
fill="#000000" stroke="none">
<path d="M4295 8765 c-543 -812 -904 -1362 -901 -1371 5 -12 247 -14 1816 -14
1613 0 1811 2 1816 15 8 19 -1787 2718 -1809 2723 -10 2 -317 -449 -922 -1353z
m2655 -1327 c0 -5 -783 -8 -1741 -8 -1094 0 -1739 4 -1737 9 1 6 394 595 873
1310 l870 1299 867 -1301 c477 -716 868 -1305 868 -1309z"/>
<path d="M6640 9340 c0 -6 -32 -10 -75 -10 l-75 0 0 -80 0 -80 54 0 c45 0 58
-4 70 -22 53 -75 -37 -159 -98 -93 -30 32 -36 31 -36 -4 0 -27 3 -30 44 -36
91 -14 146 22 146 94 0 62 -53 101 -120 87 l-30 -5 0 49 0 50 70 0 70 0 0 30
c0 17 -4 30 -10 30 -5 0 -10 -4 -10 -10z"/>
<path d="M3818 9097 c-38 -57 -68 -106 -68 -110 0 -4 29 -7 65 -7 l65 0 0 -36
c0 -23 -6 -42 -17 -50 -16 -12 -11 -13 37 -13 48 0 53 1 38 13 -12 8 -18 27
-18 50 0 33 2 36 30 36 25 0 30 4 30 25 0 27 -15 34 -24 10 -3 -8 -12 -15 -21
-15 -12 0 -15 17 -15 100 0 134 -13 134 -102 -3z m62 -27 l0 -70 -46 0 c-25 0
-44 4 -42 8 4 12 82 132 86 132 1 0 2 -31 2 -70z"/>
<path d="M4893 7039 c-26 -7 -33 -15 -33 -34 0 -16 6 -25 15 -25 8 0 15 4 15
9 0 18 31 41 55 41 80 0 67 -110 -15 -127 -38 -7 -39 -23 -1 -23 42 0 74 -30
74 -70 0 -60 -77 -84 -109 -35 -22 33 -34 32 -34 -4 0 -27 3 -30 44 -36 24 -4
58 -4 75 0 37 8 71 48 71 85 0 28 -36 70 -60 70 -8 0 -1 13 18 29 35 32 42 73
19 105 -16 22 -87 30 -134 15z"/>
</g>
</svg>
